<?xml version="1.0" standalone="no"?>
<!DOCTYPE svg PUBLIC "-//W3C//DTD SVG 20010904//EN"
 "http://www.w3.org/TR/2001/REC-SVG-20010904/DTD/svg10.dtd">
<svg version="1.0" xmlns="http://www.w3.org/2000/svg"
 width="774.000000pt" height="201.000000pt" viewBox="0 0 774.000000 201.000000"
 preserveAspectRatio="xMidYMid meet">

<g transform="translate(0.000000,201.000000) scale(0.100000,-0.100000)"
fill="#000000" stroke="none">
<path d="M980 1502 c-179 -109 -296 -186 -298 -197 -2 -9 9 -30 25 -47 l28
-29 5 -242 5 -242 344 -3 c248 -2 347 1 357 9 12 10 14 55 12 238 l-3 226
-322 3 c-178 1 -323 6 -323 10 0 5 37 29 83 55 45 25 163 97 262 159 197 124
193 120 158 195 -10 20 -23 38 -28 40 -6 2 -143 -77 -305 -175z m289 101 c-5
-26 -15 -51 -22 -55 -6 -4 -31 -19 -55 -33 l-43 -27 5 24 c3 13 7 36 11 51 4
19 20 37 52 57 26 17 50 30 54 30 3 0 2 -21 -2 -47z m-193 -115 c-4 -22 -9
-45 -12 -49 -7 -12 -94 -62 -99 -58 -2 3 1 24 6 49 8 37 17 50 52 72 23 14 46
27 51 27 5 1 6 -18 2 -41z m-200 -130 c-6 -38 -12 -47 -52 -71 -67 -40 -70
-37 -47 46 4 17 93 80 101 72 3 -2 1 -24 -2 -47z m74 -213 c-43 -43 -46 -45
-104 -45 l-60 0 44 45 c43 43 46 45 104 45 l60 0 -44 -45z m248 37 c-1 -5 -22
-25 -44 -45 -36 -32 -48 -37 -93 -37 -28 0 -51 3 -51 7 0 4 17 24 37 45 35 35
41 38 96 38 32 0 57 -4 55 -8z m201 -9 c-49 -66 -61 -73 -121 -73 -32 0 -58 3
-58 7 0 4 17 24 37 45 35 36 41 38 96 38 55 0 58 -1 46 -17z"/>
<path d="M2616 1315 c-96 -34 -148 -132 -148 -280 0 -67 6 -104 21 -146 47
-124 174 -182 286 -130 50 23 78 53 107 116 20 43 23 66 23 160 0 94 -3 117
-24 163 -50 110 -155 157 -265 117z m142 -120 c20 -22 33 -50 37 -80 11 -68 1
-175 -19 -217 -22 -46 -74 -73 -114 -60 -82 27 -118 222 -61 334 23 45 43 57
90 58 30 0 43 -7 67 -35z"/>
<path d="M6746 1315 c-55 -19 -103 -70 -127 -134 -29 -78 -29 -214 0 -292 47
-124 174 -182 286 -130 50 23 78 53 107 116 20 43 23 66 23 160 0 94 -3 117
-24 163 -50 110 -155 157 -265 117z m142 -120 c20 -22 33 -50 37 -80 11 -68 1
-175 -19 -217 -22 -46 -74 -73 -114 -60 -82 27 -118 222 -61 334 23 45 43 57
90 58 30 0 43 -7 67 -35z"/>
<path d="M1960 1035 l0 -285 45 0 45 0 0 198 1 197 42 -122 41 -123 33 0 c18
0 33 1 33 3 0 1 19 59 43 128 l42 127 -3 -204 -4 -204 46 0 46 0 0 285 0 286
-57 -3 -56 -3 -18 -55 c-10 -30 -30 -95 -45 -145 l-27 -90 -17 60 c-10 33 -30
99 -44 148 l-27 87 -60 0 -59 0 0 -285z"/>
<path d="M2972 1308 c3 -7 43 -136 89 -286 l84 -272 64 2 63 3 84 270 c46 149
84 276 84 283 0 9 -14 12 -52 10 l-53 -3 -62 -225 c-41 -148 -64 -218 -68
-205 -4 11 -32 112 -64 225 l-56 205 -59 3 c-45 2 -57 0 -54 -10z"/>
<path d="M3530 1275 l0 -44 68 -3 67 -3 0 -190 0 -190 -67 -3 -68 -3 0 -44 0
-45 190 0 190 0 0 45 0 45 -70 0 -70 0 0 195 0 195 70 0 70 0 0 45 0 45 -190
0 -190 0 0 -45z"/>
<path d="M4070 1035 l0 -285 185 0 185 0 0 45 0 45 -135 0 -135 0 0 80 0 80
110 0 110 0 0 45 0 45 -110 0 -110 0 0 70 0 70 130 0 130 0 0 45 0 45 -180 0
-180 0 0 -285z"/>
<path d="M5080 1035 l0 -286 53 3 52 3 3 85 c3 80 5 86 39 128 l36 44 69 -131
69 -131 60 0 60 0 -29 53 c-79 140 -162 290 -162 294 0 2 35 48 78 101 106
131 103 122 34 122 l-59 0 -94 -120 -94 -121 -5 118 -5 118 -52 3 -53 3 0
-286z"/>
<path d="M5600 1275 l0 -44 68 -3 67 -3 0 -190 0 -190 -67 -3 -68 -3 0 -44 0
-45 190 0 190 0 0 45 0 45 -70 0 -70 0 0 195 0 195 70 0 70 0 0 45 0 45 -190
0 -190 0 0 -45z"/>
<path d="M6100 1035 l0 -285 51 0 51 0 -4 206 -3 205 28 -63 c15 -35 58 -127
95 -206 l66 -143 56 3 55 3 0 280 0 280 -50 0 -50 0 2 -200 1 -200 -20 47
c-11 25 -52 115 -92 200 l-72 153 -57 3 -57 3 0 -286z"/>
</g>
</svg>
