<?xml version="1.0" standalone="no"?>
<!DOCTYPE svg PUBLIC "-//W3C//DTD SVG 20010904//EN"
 "http://www.w3.org/TR/2001/REC-SVG-20010904/DTD/svg10.dtd">
<svg version="1.0" xmlns="http://www.w3.org/2000/svg"
 width="512.000000pt" height="512.000000pt" viewBox="0 0 512.000000 512.000000"
 preserveAspectRatio="xMidYMid meet">

<g transform="translate(0.000000,512.000000) scale(0.100000,-0.100000)"
fill="#000000" stroke="none">
<path d="M4022 4975 c-255 -79 -465 -145 -467 -147 -3 -3 800 -647 854 -684
12 -9 55 1 186 41 148 45 170 54 167 71 -3 17 -212 704 -248 817 -9 26 -19 47
-22 46 -4 -1 -215 -65 -470 -144z"/>
<path d="M2733 4581 c-227 -69 -412 -128 -412 -131 0 -6 856 -684 869 -688 10
-4 810 237 823 248 6 5 -819 671 -857 691 -6 3 -197 -51 -423 -120z"/>
<path d="M1510 4206 c-217 -67 -401 -124 -408 -127 -8 -3 86 -84 225 -194 131
-104 327 -261 436 -347 l198 -158 412 126 c227 69 414 127 415 129 3 3 -150
127 -700 563 -91 72 -170 132 -175 131 -4 0 -186 -55 -403 -123z"/>
<path d="M427 3876 c-131 -41 -241 -77 -245 -80 -3 -3 53 -194 124 -424 l129
-417 5 -1345 5 -1345 29 -62 c33 -73 103 -144 174 -176 l47 -22 2000 0 2000 0
56 28 c104 50 171 144 189 264 7 45 10 495 8 1343 l-3 1275 -2236 5 -2236 5
539 165 c297 90 541 167 543 170 6 9 -848 683 -870 687 -11 1 -127 -31 -258
-71z m2271 -2116 c282 -162 511 -299 509 -303 -1 -4 -235 -142 -520 -306
l-517 -299 0 605 c0 332 4 603 9 601 4 -1 238 -136 519 -298z"/>
</g>
</svg>
