<?xml version="1.0" encoding="UTF-8"?>
<!DOCTYPE svg PUBLIC "-//W3C//DTD SVG 1.1//EN" "http://www.w3.org/Graphics/SVG/1.1/DTD/svg11.dtd">
<svg xmlns="http://www.w3.org/2000/svg" version="1.1" width="512px" height="512px" style="shape-rendering:geometricPrecision; text-rendering:geometricPrecision; image-rendering:optimizeQuality; fill-rule:evenodd; clip-rule:evenodd" xmlns:xlink="http://www.w3.org/1999/xlink">
<g><path style="opacity:0.976" fill="#000000" d="M 101.5,41.5 C 113.601,39.9014 122.101,44.5681 127,55.5C 127.333,74.1667 127.667,92.8333 128,111.5C 170.037,74.155 219.203,57.9884 275.5,63C 348.437,73.2928 400.271,111.793 431,178.5C 450.645,226.417 451.645,274.751 434,323.5C 413.904,372.264 380.071,408.097 332.5,431C 256.846,461.224 187.846,450.224 125.5,398C 113.708,387.201 103.208,375.367 94,362.5C 88.9155,354.154 88.2489,345.488 92,336.5C 100.605,326.243 111.105,323.743 123.5,329C 131.359,337.891 138.859,347.058 146,356.5C 183.652,393.717 228.818,408.55 281.5,401C 330.792,390.362 366.625,362.528 389,317.5C 413.196,262.977 407.863,211.644 373,163.5C 331.234,114.022 278.734,96.5224 215.5,111C 191.536,118.475 170.536,130.808 152.5,148C 174.5,148.333 196.5,148.667 218.5,149C 226.556,150.722 231.723,155.556 234,163.5C 236.806,176.387 232.306,185.553 220.5,191C 179.833,191.667 139.167,191.667 98.5,191C 91.5993,188.432 87.0993,183.598 85,176.5C 84.3333,136.833 84.3333,97.1667 85,57.5C 87.1875,48.6717 92.6875,43.3383 101.5,41.5 Z"/></g>
</svg>
